<mxfile host="app.diagrams.net" modified="2023-08-01T16:48:55.182Z" agent="Mozilla/5.0 (Windows NT 10.0; Win64; x64) AppleWebKit/537.36 (KHTML, like Gecko) Chrome/115.0.0.0 Safari/537.36" etag="gZTH0p0T4UT-55RxkPT7" version="21.6.3" type="github">
  <diagram name="Page-1" id="fqyJkq7cf3RZEqO6ylRr">
    <mxGraphModel dx="819" dy="451" grid="1" gridSize="10" guides="1" tooltips="1" connect="1" arrows="1" fold="1" page="1" pageScale="1" pageWidth="850" pageHeight="1100" math="0" shadow="0">
      <root>
        <mxCell id="0" />
        <mxCell id="1" parent="0" />
        <mxCell id="lRrJRFKY0Lt7--Liw22i-5" value="Externo" style="rounded=0;whiteSpace=wrap;html=1;fillColor=#647687;fontColor=#ffffff;strokeColor=#314354;" vertex="1" parent="1">
          <mxGeometry x="10" y="10" width="240" height="40" as="geometry" />
        </mxCell>
        <mxCell id="lRrJRFKY0Lt7--Liw22i-7" value="Bancolombia Nube" style="rounded=0;whiteSpace=wrap;html=1;fillColor=#647687;fontColor=#ffffff;strokeColor=#314354;" vertex="1" parent="1">
          <mxGeometry x="400" y="10" width="430" height="40" as="geometry" />
        </mxCell>
        <mxCell id="lRrJRFKY0Lt7--Liw22i-9" value="Bancolombia" style="rounded=0;whiteSpace=wrap;html=1;fillColor=#647687;fontColor=#ffffff;strokeColor=#314354;" vertex="1" parent="1">
          <mxGeometry x="1170" y="10" width="240" height="40" as="geometry" />
        </mxCell>
        <mxCell id="lRrJRFKY0Lt7--Liw22i-11" value="" style="whiteSpace=wrap;html=1;aspect=fixed;rounded=0;gradientColor=none;" vertex="1" parent="1">
          <mxGeometry x="320" y="80" width="860" height="860" as="geometry" />
        </mxCell>
        <mxCell id="lRrJRFKY0Lt7--Liw22i-13" style="edgeStyle=orthogonalEdgeStyle;rounded=0;orthogonalLoop=1;jettySize=auto;html=1;exitX=0.75;exitY=0;exitDx=0;exitDy=0;entryX=0;entryY=0.25;entryDx=0;entryDy=0;entryPerimeter=0;" edge="1" parent="1" source="lRrJRFKY0Lt7--Liw22i-10" target="lRrJRFKY0Lt7--Liw22i-12">
          <mxGeometry relative="1" as="geometry" />
        </mxCell>
        <mxCell id="lRrJRFKY0Lt7--Liw22i-24" style="edgeStyle=orthogonalEdgeStyle;rounded=0;orthogonalLoop=1;jettySize=auto;html=1;exitX=1;exitY=0.5;exitDx=0;exitDy=0;entryX=0;entryY=0.5;entryDx=0;entryDy=0;entryPerimeter=0;" edge="1" parent="1" source="lRrJRFKY0Lt7--Liw22i-10" target="lRrJRFKY0Lt7--Liw22i-22">
          <mxGeometry relative="1" as="geometry" />
        </mxCell>
        <mxCell id="lRrJRFKY0Lt7--Liw22i-10" value="" style="shape=image;verticalLabelPosition=bottom;labelBackgroundColor=default;verticalAlign=top;aspect=fixed;imageAspect=0;image=data:image/png,iVBORw0KGgoAAAANSUhEUgAAARMAAAC3CAMAAAAGjUrGAAAAolBMVEX///8QmtgAltYQmtYAl9f//v8AmdkAk9X1+/0ypdzg8PoQmdgAmdoAl9VftuL9///u9/wfndgAnt7X7Pfh8vnN5/Ww2e+c0OvT7Pem1O13v+W53fEAkNTJ5fTx+fy94vOKyuqY0Ow5ruE8p9t3vuWn2e1OsOCBw+aq0eu03/MWpeFWtORLuOw2ruVmvueY0OuPyOmEwudsuOOP0e7V7/RuxOoVttbkAAAOQ0lEQVR4nO1dCWOiuhaGBFkMi2yuVVBbaHG0Tt/t//9r75ywCLadWitoZ/LdO9MRk5B8nC0nIZUkAQEBAQEBAQEBAQEBAQEBAQEBAQEBAQEBAQEBAQEBAQEBAQEBgb8HvR785VQfHcf5uOw/i961O3AL0IP5bPj4+DiMxgP92p25OvTgKU4yUyOaxv9oxNveT8LFZ+rjHMvS3yBbOOhBlBqmajK5AaqYZrYZjZ2q3Dvo/ZU2Rw/jracCH5TKR6AyZUDLJJD+9PwdfRAEfb8fBItS3362sOjRxlMpH38TrLhCLaAlDT4Y5yJ4Su1f2yzH9tcujvxF12O4LJwH41hj3gGVVW/n8/L4V+Wxg4mdeaapWjJvgzGmMtPzjB0XrB8oLdBhJ1qZ9K3GvEeKbHrTQVETwhagZDC0PVV9q3GUUVXN7OHgj3e/SeCopiqO6AROOC1m9lRVlYI0M9VC4d4KGtBiZnFw1QGehWilFjLwKR80FwA1LUzFIM7MgwgdcUeLH2r2/KMsS09ynr3PDcnxeNWEe6ChYX5eGLGNPvThNwegJDZP05kmKcyYS4PdqWxS5qU/JxpGSs7hhMrZ88o8SeHkXIES/9pjPRXp1/kocYLvrtOiZtHH3ejdkGY9fN2WnAkQKPrweYeuHck40tw9R3HOJsWbHO69CMazp8noefk8gbn3YTJwbQSrE+3BpWjxeGCj+zAN2GaerOJ/JkSBbrbdpA+3MBdwYq9TSgCGr0fpygNbBKhdx9mA7G53T3nQez3jMs66MiY50PusDVV9/66gxQwmmbuna0a9ut2t5vBxMwj3P/yW82J6dnQ14xJlXdJxGniuQvXs+RW0B26pv3rXZuBjeLt+2c8u4W+vPfCPwcNkp/toZal2bk5OBgZ45irsmBHJ2d2w6iDArDzzjnbHyeCGVacAlV/1Tjnxb9DrHIMxu9PEZXTjqoMAs5J0GcE9nZghuzLUVYeS8vAzOJHVnd6ZSXn4AbrD4cWdWdmfIidAyrArTk61sbgU9uXEE1UIIdaFQkKWdWVnx6f5YhiX67r0K0kFKhNi7yf7zaXiZO+1o3ny4sSYjRqgzoH2hSEweZTfIlbOouBtg95TN5xgbH/Kc1QMeEj9L3BCaTlPcc9moQFG5aSjrOSzepJosy9xAraH8ER00B9E5BtENBpl3gkZ/+/DQYNyCilf4wSkBHVNeqHEvZCYcGy6ERR9d1KG+oucyGQJbY80+b3dPeeCyt68fUJw89mTVyz9s2K7AK26UOxFwdRpxQktMoO0kVClPMdKaVmNkrHUk4x6U4cqRalyz4Fatkdps/xbVsy4/WAWE1i6nXeKEIbuUym7YsEFmRGSj6EmJzT/jvEK5SDwA/xlMT4WiEu4m4Lm+LdQVoU6JSVQML8Zfk9lXpMxKFCYHmoRC8u/ETG26iaY7fOsEnHTsN8PwtGGYscYMV4moe/74TLhHT1wQmVFSfC7MDbKURI3Dv2+H45sGQdrxHEs4T6dfTzFutZmAk3N9+tizPj9Wlvvh7O9jdJFjHiO9xpODfxaoS9DaH+eGm/MszfugJFgyoM2Um3EkoJ7ZGB2iI9mGKrV5ISsSy+rj/JOk/tFvbaV4r/yjbKBUivvDPkKl2JjqyP+yOdAK5tUN5tBg1rSLz4tUq0pKNRs2fNAp51JxuVf2dUSWQGj7KVecF63J7KS1MLJoYURfL00ksBnJnl7M2IlNXn3XZQzu+gA/HkB5antvrAVSqa11vZaU32U9Htj/hyBnS/GUYZTifm9/XsG4hKDHaHw0x+O9vmGxXulxomLk/bF6D7lPuA3kCIHYJig9h5rp4Qqw8DX4VL/Pz+YEhcpdGb7UciX60G3Sk6kxWChUI1L0WD4+Dgcw0cr4T3bT/ecquRoOpG0TEmUsdzUM7zT7E5RiKYlkYFTleWSamgD7zBBHJIDJxpuHxkTzVLu8IEOKLO4KtwRK68NDRLtDrgcyJpGFILlBy40dmejYEwtVnAydOF7maQoL0u8GX6UVR8+z7CihlGff6Q9bruUTKopsYKjgweMPsPKYxDuAtAlEh0HfuAEO+UYKB3y3Ry6bzNe+zcvDw4m13uKw+FqyWO3RMGmNZwA+VahO0MNvbdsofGYFIEP3Ae/G3DbzRT8ymhwQq2WKWE1Thypb2hWIx9g4ZPT7sDSO5SVnMBj7cFj5MMlaEdGxEJOAkNjh5CCK8AMHzFBA9AvfSzyuUY5AaLcfF8xltTdqirYIgdjPYS2hHtN6zNISpU2KXnwajN/A6/ok4SHBHnkBs55Mg/DaIQOyT1wMoM+x0aOBPkhbI2GoqhdkPxbQruUjxF5y0esoYmwFc6JX8gjcjY/KAjjRbK8fVSrZdMf0xYpCRt5E2WWXx1M1kX3lEk9Oqo4oRoGCE4JiTtTUtUGYclHiqbgBZ8wt6BpMS4o2JNShetOPjXMp4qjatwMjHuv1n5PmjQ4oUZLfIATDrZq41YMh5UHDAaGlm4zp3WQE+042YUBhlJt24PayCkyp6/R6BAs/1spZA+FZkk4J8M8JtbwxvsDJ+5x3qjJCWvL78CDeG1O/CjVXvhrOb2epCeWzJ88+E/75Xfc0B3KOVkMBvA/h877rO18TqgjOQlKB1twj4Sc9OEid9ilIpWckFJ0mpwsoHuDAxZpgxMlbomTd/acUGppRjrnDymgFkqonoBDVBS0sXU5wY82d9M5LG4dlar2QIZZ0hoYGmtomTSMYmLC+aHgx5GgBifoi+q6E0AR49C+1YxPzNYS1e8kHHFrECEGTxfaGnqSwj+SBieUYP4P7B6WL+fB3IfSqrYi88AWBKhMLQ1J7lY0lLlNgxPuyMMqWqUK2tgXcpghN8OTrLUdxyPPajLCCCuEBYeVanuJxyt4rclJ7id8kmcMmOzytzBIMfXntWMIz2OpNKxAjyMF+e3AQEIEbMh1TmQUqSLekUuby704leW3awXrtihxkoaBBbgTmj9KHlVONXSlE42nPI7kRGbYQqxZuXQQLOMu5TxtwKcqEFBww7nhixiMokZNeTx4h6Z4ThqcUIJPfmwpfLlE4cE7BIJanlxRSI0UkEvzf21x8t9xChYEeLE3FIjRXAwdE4KPw3nBUJ/wPh84oWgAetLQoJZF3QR+yhCzLeK8NhqDNYwTDLHj5mrFE27OCygmHaFnAxvc4AQDV5ga2a4KcjS1KOHTqKVBFUZde1ZbHQKSstb257x5BYPHUro/m8xwzj+2coWR/NlwFgYO50QuY3tWTGODsR/oaFqowkMWrI0iEYIEueh2ynCdkyoFYcjzCRi+WXXdkbV8V/XC94HJDdyIZy2cvs/bf6nCWBAYXDRuB86bzZ+kbs0Ha0YZdqy2iwyeOXLC13eYiw+rjOgC6Gq99mLN8iAiqnK3bmkXHTS8mKXDOLbiJI9aivYgkrPW9RAoJJXjYdSL2traNjDe7E3VkiqHFPGYzTKGh3zKfF/k4fM1L6rcV9Y/2GMO8VB7bqg0z4BU/pUyui8SVv0XwqeZDTkBk2WX2TP9Ca5adF+x4k+rXChYE7u1hUD/nfeGwVhu9pPZBNN9efKYyEk6etyniYumAC64hpFP28AUEmO3fxyltsG4B7Kw9nA4mRr8qXLfcV8KPU4EaZI+jqaGouRzPQpzmcMSB5pSw94/LqcJzVOwMIW63w+xfaU+A/zTWy7fRPjuIhTmnAlR2JsLrPpc2xrPlGbpeu08xjCa++iJ1mz7KFXE2zvcS1Z4+41S1Evb2xM6J+3ur6eV6blko7LZ5lal0Pq8C9+BFkvHU7dvA3TOa09zwNe2tw2HKRrR1mgJ1xdumXrLNpd2gkuu4DZBJv4Tf2/gYgvnBaj52upql75qx55gmF+o/MK98H51s7VorcDunFeJT0G5SBEaFzVZTFbbi0wKPBxPAS/WeSMdzmfLzaXtqzdtfXP5IGvrTQwIMzRyUVePQZ63fOdIokujNeWRL7fZpIKW4Uy59Vd4wnZfPLjoy8rmK7fb7b/W9HrzO4XzRL/Ktm1Gag34rVmUCwJPnYk7fP96efPb7IERI/Y7e5ep50j69La1h6rmdvnnE88uj8GvC9vC84aer/sU/y6uQSBvZq/zK7xwje/QXp0TvqOyWtuR8ewy2XRX8TUIQQTrtsLZL8BN1oYrqwiTuZmR7EZRcMVzYfyVSj8+NaALUHMi6YEfzqNoFs1DP7j+KR+DnSm/uzW3M0ria1PwFs4ku6L7oUUC4HaOUMrR33nXsyqvuIPy1hhBhLty8nPGy23fgJo9X3vo74M/JGBFxU2hnZ2Ww1886G4i80UUB5EHz6tMNd92vDVSVA9PirxFtalB9ye7lWdW0FT1W+nDPzBKqamuUEhu05Y0gWelRU8Po9HoYTb3x6tvyAqOW+W7l+oX+a5t1XTj8e2T8T5G30jGMdN+2hkey4+Srd50klXZsJ+uH5idjl45CXX4H31zPiksG+Ph5/HGyKgJogFSo8qZsUmjH3iubh3hmTEuyIMX5004Az8aLmPA81/xWwN6fM3jLAetdnuGS6eIz4tx1W2hIUem9Kda1gac6TkpSnU1rtZjrn3maQtw7r98PCaVtz/mJOHz4MTeF9MJaqdHH3UOHmhOvnYEsboK/tJfI1LHeHt6jsX0UvQ4fz0n/EB/+mmWn59vuungPIEbQfCafXY6OcTtqtHJURw3AdQEPzXUP9pa09s8LKri/wiC0cYzC5EoD7coZUQ1s9foH+LiAGccbz2TqVZ1DgfaEMtUjelVD4++Ekrv6gTR0t56GuEvp2l3JFtNH/wfP7U7FzXVcBb+PJpFURjU2BC/T1FAQEBAQEBAQEBAQEBAQEBAQEBAQEBAQEBAQEBAQEBAQEBAQEBAQEBAQEBA4Jr4Pyci7L9skpihAAAAAElFTkSuQmCC;" vertex="1" parent="1">
          <mxGeometry x="10" y="270" width="275" height="183" as="geometry" />
        </mxCell>
        <mxCell id="lRrJRFKY0Lt7--Liw22i-14" style="edgeStyle=orthogonalEdgeStyle;rounded=0;orthogonalLoop=1;jettySize=auto;html=1;exitX=0;exitY=0.75;exitDx=0;exitDy=0;exitPerimeter=0;elbow=vertical;" edge="1" parent="1" source="lRrJRFKY0Lt7--Liw22i-12" target="lRrJRFKY0Lt7--Liw22i-10">
          <mxGeometry relative="1" as="geometry" />
        </mxCell>
        <mxCell id="lRrJRFKY0Lt7--Liw22i-12" value="" style="sketch=0;points=[[0,0,0],[0.25,0,0],[0.5,0,0],[0.75,0,0],[1,0,0],[0,1,0],[0.25,1,0],[0.5,1,0],[0.75,1,0],[1,1,0],[0,0.25,0],[0,0.5,0],[0,0.75,0],[1,0.25,0],[1,0.5,0],[1,0.75,0]];outlineConnect=0;fontColor=#232F3E;gradientColor=#F54749;gradientDirection=north;fillColor=#C7131F;strokeColor=#ffffff;dashed=0;verticalLabelPosition=bottom;verticalAlign=top;align=center;html=1;fontSize=12;fontStyle=0;aspect=fixed;shape=mxgraph.aws4.resourceIcon;resIcon=mxgraph.aws4.cognito;" vertex="1" parent="1">
          <mxGeometry x="400" y="170" width="78" height="78" as="geometry" />
        </mxCell>
        <mxCell id="lRrJRFKY0Lt7--Liw22i-15" value="" style="shape=image;verticalLabelPosition=bottom;labelBackgroundColor=default;verticalAlign=top;aspect=fixed;imageAspect=0;image=data:image/jpeg,/9j/4AAQSkZJRgABAQAAAQABAAD/2wCEAAkGBw0NDQ0NDQ0NDQ0NDQ0NDQ0NDQ8NDQ0NFREWFxURFRUYHSggGBolGxUVITEhJSorLy46GCAzODMsNygtLisBCgoKDQ0NFQ0PFS0dFR0tKysrKy0tLSsrKy0tLS0tKysrLSstKysrKysrLSsrLSsrListLSstLS0rLS0tKy0rLf/AABEIALcBEwMBEQACEQEDEQH/xAAbAAEAAwEAAwAAAAAAAAAAAAAABQYHBAECA//EAD4QAAICAQICBwUFBgQHAAAAAAABAgMEBREGEgcTITFBUYEUImFxkTJykqHBI2KCorHRQ0RScxUzNUJjsrP/xAAaAQEAAwEBAQAAAAAAAAAAAAAAAQIDBAUG/8QAMxEBAQABAgQCCAQGAwAAAAAAAAECAxEEEiExBdEGIkFRYXGRoUKBseETMjNDUvAVU8H/2gAMAwEAAhEDEQA/AM1OhiAAAAAAAAAAAAAAAAAAAAAAAAAAAAAAAAAAAAAAAAAAAAAAAAAAAAAAAAAAAAAAAAAAAAAAAAAAAAAAAAAAAAAAAAAAAAAAAAAAAAAAAAAAAAAAAAAAAAAAAAAAAAAAAAAAAAAAAAAAAAAAAAAAAAAAAAAAAAAAAAAAAAAAAAAAAAAAAAAAAAAAAAAAAAAAAAAAAAAAAAAAAAAAAAAAAAAAAAAAAAAAAAAAAAAAAAAAAAAAAAAAAAAAAAAAAAAAAAAAAAAAAAAAAAAAAAAAAAAAAAAAAAAAAAAAAAAAAAAAAAAAAAAAAAAAAAAAAAAAAAAAAAAAAAAAAAAAAAAAAEto/DWoZ/biYd10N9usUeWrf78to/mRbImTdLX9G+uVx5nguSXa1XbVOX05u0jmieWqvbRZXZKqcJwtjLklXOLjZGf+lxfamWVd+p8P5+HBWZWHkUVykoqdtbjFya3S38+xkbyp2qOhByajFOUpNRjFLdyk3skl4slCQ1Ph/Pw4RsysPIx65SUFO2txi5NNpb+fY/oRvKnZHRi20km22kklu233JEoSOp6DnYcI2ZWJfjwnLkhK2DgpT2b5fnsm/QiWVOz6aJw1qGobvDxbboJ7OxbQqT8ueTS3+AtkJN0lm9HutUR5pYFk4rtfUyrua/hi9/yI5octViUWm001JNppppprvTXgyyHgAAAAAAAAAAAAAAAAAAAAAAAAAADA0KfSznV4+PjYePj48aKaqnOfNfOXLFLdL3VHu8mU5J7VuavfQOlfU45VMct03487IQtXVKuyMZPbmjKPit9+1Pfb1FwhMqnOnfSq1ViZ8IqNvW+zWTj2OcHCUoN/FOL+pGF9ic01rE/+M8KO5e9Y8SFz27f29D3mvrCS9SJ0yT3xZX0Z4HtWs4MNt412PIn8I1xcl/Ny/Uvl2UndsfSLVDP0bUq63zTxHzP922rlskvwt/Uzx6WL3sxro3072vWMGtreFdntE/hGpcy/mUV6mmV6KTuu/TFmLK1LS9L59oKyuV23epXWKEfVR5vxFcO1q2XeRYukbXbtB0/Er06qquMrPZ4zlDmrohGG6SXdzPbvfk+8jGb3qnK7ToznD6VtarmpTtovjv2wtoik15Jw2aLckV5qquu6lLNy8jLlCNcsix2OEW3GLfgn4lpNpshwkoAAAAAAAAAAAAAAAAAAAAAAAAAB7VVynKMIJynOUYQiu+Um9kl82wNhwuj7R9Jw45euW9ZY9uaPNONMZvurhCHvTf8AZvZGfNbdovyyd3Cszgm6UYKm6iXNHlnGvKgubfs7m/zQ9c9VPdOf/Ssbbu9uq/8AlaRh3Tl2cfQbqKuw8zT7Gn1VnWRj/wCK1bSX4k/xE5990Y+5ydEOiey6jq9li2WDz4ab/wBxtv8ADXF+ozvSGM611dEmsLPt1uix8yy7p5iT8a7XKEl8kuRDObbGN7uToU0R05mqXWLtw3LATa299WPn/wDSP1Gd7GEZ7xbq8s3U8vLUn72RLqZJ91cHy1tfwxiy8m02Vt6tM4e6U8HJx44usVcsnFQssdXX41/70o7Nxfo0UuF9i0y97rv6PtA1auVumXwql/qxLVbVGXlKpvs+S5SObKd08svZkPEWi36bl24eRt1lbW0o/Zsg+2M4/Br+xpLupZsjSUAAAAAAAAAAAAAAAAAAAAAAAAAAkOHsqFGdhX2bdXTmY1tm/coRti2/RLf0IvZLbelrhzK1TDxpYSV0qLXb1SnFdbXOG3NFvsbXZ9WZ4Xa9V8puoPDHRpnyvhfqEI4OHRJXXStshzyhB8zikm9k9u1vbYtcp7FZjV96YcV5WiK+hqcKLqMreLTU6WnHmXw2sT9CuHdbLszPon1X2XWcdN7QylPFn27LeS3g/wAcYr1L5TeK43q1vjSNemaZrOVV7tma+Z/71lddC2+m/wBTOdbItekrJeiTUPZtaxo90cmFuNL+KPNH+aEV6mmfZXHu1ni6VekaXquRVsrMu2ya8H19yjX+XeZzrYtekYBo+nyy8nHxYSjCV9sKYylu4xcntu9jW1nFn1Pow1qiTUcaOTHd7Tx7YNNefLJpoiZxblq09FXBOp4eeszKreLTGqyDhKcXZc5bbRcYt9i7+3yRXLKWbJxl3Vrpg1OrK1efUyjOOPTXjTnF7p2xlJyW/wAObb0ZbCdEZd1JLKgAAAAAAAAAAAAAAAAAAAAAAAAAAWbQuPdW0+pUUZKlTFbQrvrjbGteUW+1L4b7FbjKmWx8OIOMtT1KPV5WS3V2N01xjVU2u7dL7XruTMZC21w3a7m2YteDPJtliVP3KN0oLt3Sfi0n3J77eA2nc3cNVkoSjODcZwlGcJLscZJ7pr4polCY1ji3U8+pUZeXO6pSU+RwqgnJdzfLFbkSSJ3qIx751WQtrk4WVyjOE498Zxe6a9SUJXWuKtS1CuNWZlzvrhPrIwca4R50mk/dit+xvv8AMiSTsneoeEnFqUW4yi04tPZpruafgyULdp/SXrePFQWVG5LsXtFUbZJfeWzfqyvLFuavTVukjWMqDrnlRphJNSWNWqXJeXN2y+jEwnuRcvfVSTXgy2yN48gAAAAAAAAAAAAAAAAAAAAAAAAABKaNXh2qVOTKVNk5b1ZKl7kXt9icX2bfH4+B5/G58Vp7a2hObGd8fbfjL7/g6+Gx0M99PVvLb2y/8r7apwxl428uTrqu9WUpy7PNx70Z8L4vw2v6u/Ll7r0+/ZbX8P1tLrtzY++eSFPUcQAAAAAAD74U6Y2Rd8J2VrfeEJKDk/Bb+RlrzVyws0spMvfZu007hMpc5vj7otGJxLXXByx9KiqofanF7qP3pcn9WeBreE6mecmtxfrXtPKcz1NPj8Mcd9Ph/Vnt/fZK5uVj5mlXZTojB9XaoqSi5QsT5U1Lbz2PP0NHX4XxLDh5qW9Z+c79Z8nXq6mnr8Flrcm3S/VnZ9o+cAAAAAAAAAAAAAAAAAAAAAAAAAAAndC4nyMPaD/bUL/Dk/eiv3JeHy7jyeP8I0OK3znq6nvnt+cd/C+Iamh6t9bH3eS11WaVqnfGvrn3xl+yvXya+1+Z89nj4l4d2t5Prj+32etjeD4zvJzfSuLL4Dqe7oyJw8lZFWL6rZnTo+kmpOmrpy/Lp5sdTwfC/wAmdnz6+SKv4IzY/YlTYvvuD+jX6no6fpDwmX80uP5buTPwnXnayuOfCmoL/L7/AHbK3+p04+M8Df7n2vkxvh3Ez8H3j1XC+oP/AC0vWdf9y18Y4H/tn0vkj/j+J/w/TzdFXB2oS74Vw+/av03MM/HeCx7ZW/KeezTHwvib7JPzSWLwFY9ndkxivFVwcn9Xt/Q4tX0kwn9PTt+d2/R04eDZfjz+kd89F0nT0p5ElOXeldLnlL5Vrv8AocePiHifG3l0ZtPhNp+drovCcFw05tS734+SC13iieRB4+NX1OO/daSXPYvLZdkV8EetwHg+Ohl/H18ubU7/AAnn83BxXiGWrP4WnOXD73ydHEmQsXCxtNi11ijCzJ2/7X9rl9ZPf0MfDdK8Rxerx+U9XezH9N/yjTjM5o8Phws797/vzVM+ieQAAAAAAAAAAAAAAAAAAAAAAAAAAAAAS+DxJnUbKFznFd0LV1kfz7fzPO1/CeE1uuWG1986ft9nZpcfxGn0mW8+PX903jce2L/m40Jebrm4fk0/6nlavo3hf6erZ85v+mzuw8Zy/Hh9K7ocd4z+1RfH5cjX9Tky9G9f2amN+vk3njGl7cb9nmXHeL4U3v0gv1Ino5xHtzx+/km+MaPsxv283Hkcev8AwsX1ss/RL9Tp0/Rqf3NX6TzY5+M/44fWobN4sz7t11qqi/CmPJ2fN7v8z09DwXg9Lry81+PX7dI4tTxLic+nNtPghZzcm5SblJ98pNtv5tnqzGYzaTaOG2273u8Rk0009mmmmu9NdzFkssvYl2u8ebLJTk5SblKTblKT3bb8WyMccccZjjNpC25W23e16lkAAAAAAAAAAAAAAAAAAAAAAAAAAAAAAAAAAAAAAAAAAAAAAAAAAAAAAAAAAAAAAAAAAAAAAAAAAAAAAAAAAAAAAAAAAAAAAAAAAAAAAAAAAAAAAAAAAAAAAAAAAAAAAAAAAAAAAAAAAAAAAAAAAAAAAAAAAAAAAAAAAAAAAAAAAAAAAAAAAAAAAAAAAAAAAAAAAAAAAAAAAAAAAAAAAAAAAAAAAAAAAAAAAAAAAAAAAAAAAAAAAAAAAAAAAAAAAAAAAAAAAAAAAAAAAAAAAAAAAAAAAAAAAAAAAAAAAAAAAA//2Q==;" vertex="1" parent="1">
          <mxGeometry x="320" y="80" width="79.64" height="53" as="geometry" />
        </mxCell>
        <mxCell id="lRrJRFKY0Lt7--Liw22i-16" value="AWS Cloud Clientes" style="text;html=1;strokeColor=none;fillColor=none;align=center;verticalAlign=middle;whiteSpace=wrap;rounded=0;" vertex="1" parent="1">
          <mxGeometry x="400" y="90" width="130" height="30" as="geometry" />
        </mxCell>
        <mxCell id="lRrJRFKY0Lt7--Liw22i-17" value="Cognito" style="text;html=1;strokeColor=none;fillColor=none;align=center;verticalAlign=middle;whiteSpace=wrap;rounded=0;" vertex="1" parent="1">
          <mxGeometry x="409" y="240" width="60" height="30" as="geometry" />
        </mxCell>
        <mxCell id="lRrJRFKY0Lt7--Liw22i-18" value="Token JWT" style="text;html=1;strokeColor=none;fillColor=none;align=center;verticalAlign=middle;whiteSpace=wrap;rounded=0;" vertex="1" parent="1">
          <mxGeometry x="250" y="160" width="60" height="30" as="geometry" />
        </mxCell>
        <mxCell id="lRrJRFKY0Lt7--Liw22i-21" value="Client ID Secret ID" style="text;html=1;strokeColor=none;fillColor=none;align=center;verticalAlign=middle;whiteSpace=wrap;rounded=0;" vertex="1" parent="1">
          <mxGeometry x="240" y="230" width="60" height="30" as="geometry" />
        </mxCell>
        <mxCell id="lRrJRFKY0Lt7--Liw22i-22" value="" style="sketch=0;points=[[0,0,0],[0.25,0,0],[0.5,0,0],[0.75,0,0],[1,0,0],[0,1,0],[0.25,1,0],[0.5,1,0],[0.75,1,0],[1,1,0],[0,0.25,0],[0,0.5,0],[0,0.75,0],[1,0.25,0],[1,0.5,0],[1,0.75,0]];outlineConnect=0;fontColor=#232F3E;gradientColor=#945DF2;gradientDirection=north;fillColor=#5A30B5;strokeColor=#ffffff;dashed=0;verticalLabelPosition=bottom;verticalAlign=top;align=center;html=1;fontSize=12;fontStyle=0;aspect=fixed;shape=mxgraph.aws4.resourceIcon;resIcon=mxgraph.aws4.route_53;" vertex="1" parent="1">
          <mxGeometry x="380" y="390" width="78" height="78" as="geometry" />
        </mxCell>
        <mxCell id="lRrJRFKY0Lt7--Liw22i-23" value="DNS" style="text;html=1;strokeColor=none;fillColor=none;align=center;verticalAlign=middle;whiteSpace=wrap;rounded=0;" vertex="1" parent="1">
          <mxGeometry x="369" y="480" width="60" height="30" as="geometry" />
        </mxCell>
        <mxCell id="lRrJRFKY0Lt7--Liw22i-25" value="VPC" style="points=[[0,0],[0.25,0],[0.5,0],[0.75,0],[1,0],[1,0.25],[1,0.5],[1,0.75],[1,1],[0.75,1],[0.5,1],[0.25,1],[0,1],[0,0.75],[0,0.5],[0,0.25]];outlineConnect=0;gradientColor=none;html=1;whiteSpace=wrap;fontSize=12;fontStyle=0;container=1;pointerEvents=0;collapsible=0;recursiveResize=0;shape=mxgraph.aws4.group;grIcon=mxgraph.aws4.group_vpc;strokeColor=#248814;fillColor=none;verticalAlign=top;align=left;spacingLeft=30;fontColor=#AAB7B8;dashed=0;" vertex="1" parent="1">
          <mxGeometry x="530" y="170" width="590" height="540" as="geometry" />
        </mxCell>
        <mxCell id="lRrJRFKY0Lt7--Liw22i-26" value="Private subnet" style="points=[[0,0],[0.25,0],[0.5,0],[0.75,0],[1,0],[1,0.25],[1,0.5],[1,0.75],[1,1],[0.75,1],[0.5,1],[0.25,1],[0,1],[0,0.75],[0,0.5],[0,0.25]];outlineConnect=0;gradientColor=none;html=1;whiteSpace=wrap;fontSize=12;fontStyle=0;container=1;pointerEvents=0;collapsible=0;recursiveResize=0;shape=mxgraph.aws4.group;grIcon=mxgraph.aws4.group_security_group;grStroke=0;strokeColor=#147EBA;fillColor=#E6F2F8;verticalAlign=top;align=left;spacingLeft=30;fontColor=#147EBA;dashed=0;" vertex="1" parent="lRrJRFKY0Lt7--Liw22i-25">
          <mxGeometry x="80" y="50" width="480" height="420" as="geometry" />
        </mxCell>
      </root>
    </mxGraphModel>
  </diagram>
</mxfile>
